<svg width="100" height="48" viewBox="0 0 100 48" fill="none" xmlns="http://www.w3.org/2000/svg">
<path d="M19.8894 19.4787C21.0517 19.7231 21.9854 20.2965 22.6904 21.1989C23.3954 22.0825 23.7479 23.0976 23.7479 24.2444C23.7479 25.8988 23.1572 27.2147 21.9759 28.1923C20.8135 29.1511 19.1844 29.6305 17.0884 29.6305H7.74224V9.83454H16.774C18.8128 9.83454 20.4039 10.2951 21.5471 11.2163C22.7095 12.1375 23.2906 13.3877 23.2906 14.9668C23.2906 16.1324 22.9762 17.1006 22.3474 17.8714C21.7377 18.6421 20.9183 19.1779 19.8894 19.4787ZM12.6297 17.8432H15.8308C16.6311 17.8432 17.2409 17.674 17.66 17.3356C18.0983 16.9784 18.3174 16.4614 18.3174 15.7846C18.3174 15.1078 18.0983 14.5908 17.66 14.2336C17.2409 13.8765 16.6311 13.6979 15.8308 13.6979H12.6297V17.8432ZM16.231 25.739C17.0503 25.739 17.6791 25.5604 18.1174 25.2032C18.5747 24.8272 18.8033 24.2914 18.8033 23.5958C18.8033 22.9002 18.5651 22.3551 18.0888 21.9603C17.6315 21.5655 16.9931 21.3681 16.1738 21.3681H12.6297V25.739H16.231Z" fill="#F5F3FA"/>
<path d="M33.8424 29.8561C32.2799 29.8561 30.8699 29.5271 29.6123 28.8691C28.3737 28.2111 27.3924 27.2711 26.6684 26.0492C25.9634 24.8272 25.6109 23.3984 25.6109 21.7629C25.6109 20.1461 25.9729 18.7267 26.697 17.5048C27.421 16.264 28.4119 15.3146 29.6694 14.6566C30.927 13.9986 32.3371 13.6697 33.8995 13.6697C35.462 13.6697 36.872 13.9986 38.1296 14.6566C39.3872 15.3146 40.378 16.264 41.1021 17.5048C41.8261 18.7267 42.1882 20.1461 42.1882 21.7629C42.1882 23.3796 41.8166 24.8084 41.0735 26.0492C40.3494 27.2711 39.3491 28.2111 38.0724 28.8691C36.8148 29.5271 35.4048 29.8561 33.8424 29.8561ZM33.8424 25.6826C34.776 25.6826 35.5668 25.3442 36.2146 24.6674C36.8815 23.9906 37.215 23.0224 37.215 21.7629C37.215 20.5033 36.8911 19.5351 36.2432 18.8583C35.6144 18.1816 34.8332 17.8432 33.8995 17.8432C32.9468 17.8432 32.156 18.1816 31.5273 18.8583C30.8985 19.5163 30.5841 20.4845 30.5841 21.7629C30.5841 23.0224 30.8889 23.9906 31.4987 24.6674C32.1275 25.3442 32.9087 25.6826 33.8424 25.6826Z" fill="#F5F3FA"/>
<path d="M52.0408 29.8561C50.4783 29.8561 49.0683 29.5271 47.8107 28.8691C46.5722 28.2111 45.5909 27.2711 44.8668 26.0492C44.1618 24.8272 43.8093 23.3984 43.8093 21.7629C43.8093 20.1461 44.1713 18.7267 44.8954 17.5048C45.6195 16.264 46.6103 15.3146 47.8679 14.6566C49.1255 13.9986 50.5355 13.6697 52.0979 13.6697C53.6604 13.6697 55.0704 13.9986 56.328 14.6566C57.5856 15.3146 58.5764 16.264 59.3005 17.5048C60.0246 18.7267 60.3866 20.1461 60.3866 21.7629C60.3866 23.3796 60.015 24.8084 59.2719 26.0492C58.5479 27.2711 57.5475 28.2111 56.2709 28.8691C55.0133 29.5271 53.6032 29.8561 52.0408 29.8561ZM52.0408 25.6826C52.9744 25.6826 53.7652 25.3442 54.4131 24.6674C55.08 23.9906 55.4134 23.0224 55.4134 21.7629C55.4134 20.5033 55.0895 19.5351 54.4416 18.8583C53.8128 18.1816 53.0316 17.8432 52.0979 17.8432C51.1452 17.8432 50.3545 18.1816 49.7257 18.8583C49.0969 19.5163 48.7825 20.4845 48.7825 21.7629C48.7825 23.0224 49.0874 23.9906 49.6971 24.6674C50.3259 25.3442 51.1071 25.6826 52.0408 25.6826Z" fill="#F5F3FA"/>
<path d="M72.7258 29.6305L67.8669 23.0318V29.6305H62.9795V8.76297H67.8669V20.2965L72.6972 13.8952H78.7279L72.097 21.7911L78.7851 29.6305H72.7258Z" fill="#F5F3FA"/>
<path d="M85.2206 25.6544H92.1374V29.6305H79.7616V25.7954L86.3925 17.8714H79.8187V13.8952H91.9945V17.7304L85.2206 25.6544Z" fill="#F5F3FA"/>
<path d="M97.1133 29.8561C96.2558 29.8561 95.5508 29.6117 94.9982 29.1229C94.4647 28.6153 94.1979 27.9949 94.1979 27.2617C94.1979 26.5098 94.4647 25.88 94.9982 25.3724C95.5508 24.8648 96.2558 24.611 97.1133 24.611C97.9517 24.611 98.6376 24.8648 99.1711 25.3724C99.7237 25.88 100 26.5098 100 27.2617C100 27.9949 99.7237 28.6153 99.1711 29.1229C98.6376 29.6117 97.9517 29.8561 97.1133 29.8561Z" fill="#F5F3FA"/>
<path fill-rule="evenodd" clip-rule="evenodd" d="M3.00049 0.997772C1.34363 0.997772 0.000488281 2.34093 0.000488281 3.99777V43.9968C0.000488281 46.5137 2.91309 47.9118 4.8769 46.3376L14.7034 38.4603L24.5299 46.3376C26.4937 47.9118 29.4063 46.5137 29.4063 43.9968V31.1577C29.0905 31.0298 28.7816 30.8869 28.4797 30.729C27.2564 30.079 26.2319 29.211 25.4063 28.1249V41.9135L16.5798 34.8379C15.4833 33.9589 13.9235 33.9589 12.827 34.8379L4.00049 41.9135V4.99777H25.4063V15.4731C26.2422 14.3488 27.2907 13.4567 28.5519 12.7968C28.8308 12.6509 29.1156 12.5178 29.4063 12.3976V3.99777C29.4063 2.34092 28.0632 0.997772 26.4063 0.997772H3.00049Z" fill="#2874CD"/>
</svg>
